<?xml version="1.0" encoding="UTF-8" standalone="no"?>
<!DOCTYPE svg PUBLIC "-//W3C//DTD SVG 1.1//EN" "http://www.w3.org/Graphics/SVG/1.1/DTD/svg11.dtd">
<svg width="100%" height="100%" viewBox="0 0 600 345" version="1.1" xmlns="http://www.w3.org/2000/svg" xmlns:xlink="http://www.w3.org/1999/xlink" xml:space="preserve" xmlns:serif="http://www.serif.com/" style="fill-rule:evenodd;clip-rule:evenodd;stroke-linejoin:round;stroke-miterlimit:2;">
    <g transform="matrix(1.91122,0,0,1.91122,-520.772,-397.689)">
        <path d="M352.342,366.44L351.064,378.353L346.242,378.353L343.751,355.997L347.168,355.997L349.053,373.626L350.745,355.997L354.13,355.997L355.887,373.754L357.708,355.997L360.773,355.997L358.282,378.353L353.62,378.353L352.342,366.44Z" style="fill:rgb(6,103,56);fill-rule:nonzero;"/>
    </g>
    <g transform="matrix(1.91122,0,0,1.91122,-520.772,-397.689)">
        <rect x="368.916" y="355.997" width="3.513" height="22.356" style="fill:rgb(6,103,56);fill-rule:nonzero;"/>
    </g>
    <g transform="matrix(1.91122,0,0,1.91122,-520.772,-397.689)">
        <path d="M381.37,355.997L384.883,355.997L384.883,375.158L390.664,375.158L390.664,378.353L381.37,378.353L381.37,355.997Z" style="fill:rgb(6,103,56);fill-rule:nonzero;"/>
    </g>
    <g transform="matrix(1.91122,0,0,1.91122,-520.772,-397.689)">
        <path d="M402.097,359.19L402.097,375.158L404.077,375.158C405.194,375.158 405.865,374.584 405.865,372.987L405.865,361.362C405.865,359.766 405.194,359.19 404.077,359.19L402.097,359.19ZM398.583,355.997L404.141,355.997C407.654,355.997 409.378,357.944 409.378,361.522L409.378,372.827C409.378,376.404 407.654,378.353 404.141,378.353L398.583,378.353L398.583,355.997Z" style="fill:rgb(6,103,56);fill-rule:nonzero;"/>
    </g>
    <g transform="matrix(1.91122,0,0,1.91122,-520.772,-397.689)">
        <path d="M432.85,359.19L432.85,366.057L434.224,366.057C435.533,366.057 436.331,365.482 436.331,363.693L436.331,361.49C436.331,359.893 435.788,359.19 434.543,359.19L432.85,359.19ZM436.683,378.353C436.491,377.777 436.363,377.426 436.363,375.606L436.363,372.093C436.363,370.017 435.66,369.25 434.063,369.25L432.85,369.25L432.85,378.353L429.337,378.353L429.337,355.997L434.639,355.997C438.279,355.997 439.844,357.69 439.844,361.139L439.844,362.895C439.844,365.194 439.109,366.695 437.545,367.43C439.302,368.164 439.876,369.857 439.876,372.189L439.876,375.638C439.876,376.724 439.908,377.522 440.26,378.353L436.683,378.353Z" style="fill:rgb(6,103,56);fill-rule:nonzero;"/>
    </g>
    <g transform="matrix(1.91122,0,0,1.91122,-520.772,-397.689)">
        <rect x="448.562" y="355.997" width="3.512" height="22.356" style="fill:rgb(6,103,56);fill-rule:nonzero;"/>
    </g>
    <g transform="matrix(1.91122,0,0,1.91122,-520.772,-397.689)">
        <path d="M464.529,359.19L464.529,375.158L466.51,375.158C467.628,375.158 468.298,374.584 468.298,372.987L468.298,361.362C468.298,359.766 467.628,359.19 466.51,359.19L464.529,359.19ZM461.017,355.997L466.573,355.997C470.087,355.997 471.812,357.944 471.812,361.522L471.812,372.827C471.812,376.404 470.087,378.353 466.573,378.353L461.017,378.353L461.017,355.997Z" style="fill:rgb(6,103,56);fill-rule:nonzero;"/>
    </g>
    <g transform="matrix(1.91122,0,0,1.91122,-520.772,-397.689)">
        <path d="M483.945,365.418L488.769,365.418L488.769,368.611L483.945,368.611L483.945,375.158L490.014,375.158L490.014,378.353L480.433,378.353L480.433,355.997L490.014,355.997L490.014,359.19L483.945,359.19L483.945,365.418Z" style="fill:rgb(6,103,56);fill-rule:nonzero;"/>
    </g>
    <g transform="matrix(1.91122,0,0,1.91122,-520.772,-397.689)">
        <path d="M503.299,355.741C506.716,355.741 508.473,357.785 508.473,361.362L508.473,362.065L505.151,362.065L505.151,361.139C505.151,359.542 504.513,358.935 503.395,358.935C502.277,358.935 501.639,359.542 501.639,361.139C501.639,365.737 508.505,366.6 508.505,372.987C508.505,376.564 506.716,378.607 503.267,378.607C499.818,378.607 498.029,376.564 498.029,372.987L498.029,371.613L501.351,371.613L501.351,373.211C501.351,374.808 502.054,375.382 503.171,375.382C504.289,375.382 504.991,374.808 504.991,373.211C504.991,368.611 498.125,367.749 498.125,361.362C498.125,357.785 499.882,355.741 503.299,355.741Z" style="fill:rgb(6,103,56);fill-rule:nonzero;"/>
    </g>
    <g transform="matrix(1.91122,0,0,1.91122,-520.772,-397.689)">
        <path d="M382.562,346.569C372.329,346.569 364.002,338.243 364.002,328.009C364.002,327.786 364.014,327.562 364.038,327.34L364.038,248.697C364.038,245.17 366.897,242.31 370.425,242.31C373.952,242.31 376.812,245.17 376.812,248.697L376.812,327.889C376.812,328.063 376.805,328.237 376.79,328.411C376.997,331.414 379.507,333.795 382.562,333.795C385.753,333.795 388.348,331.2 388.348,328.009L388.348,248.697C388.348,245.17 391.208,242.31 394.735,242.31C398.263,242.31 401.122,245.17 401.122,248.697L401.122,328.009C401.122,338.243 392.796,346.569 382.562,346.569Z" style="fill:rgb(6,103,56);fill-rule:nonzero;"/>
    </g>
    <g transform="matrix(1.91122,0,0,1.91122,-520.772,-397.689)">
        <path d="M416.641,346.509C413.114,346.509 410.254,343.649 410.254,340.121L410.254,248.697C410.254,245.17 413.114,242.31 416.641,242.31C420.168,242.31 423.028,245.17 423.028,248.697L423.028,340.121C423.028,343.649 420.168,346.509 416.641,346.509Z" style="fill:rgb(6,103,56);fill-rule:nonzero;"/>
    </g>
    <g transform="matrix(1.91122,0,0,1.91122,-520.772,-397.689)">
        <path d="M440.624,346.509C437.097,346.509 434.238,343.649 434.238,340.121L434.238,248.697C434.238,245.17 437.097,242.31 440.624,242.31C444.152,242.31 447.011,245.17 447.011,248.697L447.011,340.121C447.011,343.649 444.152,346.509 440.624,346.509Z" style="fill:rgb(6,103,56);fill-rule:nonzero;"/>
    </g>
    <g transform="matrix(1.91122,0,0,1.91122,-520.772,-397.689)">
        <path d="M440.627,308.943C438.825,308.943 437.033,308.183 435.769,306.705L411.786,278.643C409.494,275.961 409.81,271.93 412.491,269.638C415.173,267.345 419.204,267.662 421.496,270.343L445.48,298.406C447.772,301.087 447.455,305.119 444.774,307.411C443.571,308.439 442.095,308.943 440.627,308.943Z" style="fill:rgb(6,103,56);fill-rule:nonzero;"/>
    </g>
    <g transform="matrix(1.91122,0,0,1.91122,-520.772,-397.689)">
        <path d="M393.998,292.569L385.756,292.569C382.228,292.569 379.369,289.709 379.369,286.182C379.369,282.655 382.228,279.795 385.756,279.795L393.998,279.795C397.525,279.795 400.385,282.655 400.385,286.182C400.385,289.709 397.525,292.569 393.998,292.569Z" style="fill:rgb(6,103,56);fill-rule:nonzero;"/>
    </g>
    <g transform="matrix(1.91122,0,0,1.91122,-520.772,-397.689)">
        <path d="M337.798,255.246C337.176,255.246 336.545,255.325 335.911,255.488C330.479,256.888 324.136,264.723 324.136,282.2L324.136,287.289C331.722,286.41 338.746,282.367 342.824,277.551C346.116,273.664 349.183,267.479 345.103,260.084C343.394,256.986 340.703,255.246 337.798,255.246ZM304.039,345.486C300.9,345.486 298.746,346.681 297.635,349.04C296.456,351.542 296.904,354.46 297.994,355.728C298.268,356.047 299.104,357.017 301.924,356.178C302.588,355.98 305.316,354.621 307.622,345.536C306.398,345.523 305.277,345.508 304.289,345.488C304.205,345.487 304.122,345.486 304.039,345.486ZM299.89,369.288C295.32,369.288 291.263,367.494 288.308,364.057C283.722,358.724 282.827,350.501 286.079,343.597C289.364,336.621 296.275,332.549 304.541,332.717C306.007,332.746 307.802,332.766 309.793,332.779C310.904,322.787 311.229,311.018 311.324,298.928C310.523,298.71 309.729,298.463 308.947,298.188C299.265,294.776 282.892,283.941 282.03,249.703C281.941,246.177 284.728,243.246 288.255,243.157C291.795,243.059 294.712,245.856 294.801,249.382C295.269,267.999 301.128,280.681 311.362,285.398L311.362,282.2C311.362,257.442 322.397,245.778 332.725,243.118C341.946,240.743 351.415,245.081 356.288,253.913C362.042,264.342 360.653,276.266 352.572,285.807C345.49,294.169 334.825,299.259 324.092,300.079C323.993,311.817 323.672,322.991 322.642,332.797C331.15,332.778 338.896,332.717 339.034,332.716C339.052,332.715 339.069,332.715 339.086,332.715C342.59,332.715 345.444,335.541 345.472,339.051C345.5,342.579 342.664,345.461 339.137,345.489C338.532,345.494 329.766,345.563 320.682,345.576C318.085,357.626 313.537,366.046 305.574,368.42C303.622,369.001 301.715,369.288 299.89,369.288Z" style="fill:rgb(6,103,56);fill-rule:nonzero;"/>
    </g>
    <g transform="matrix(1.91122,0,0,1.91122,-520.772,-397.689)">
        <path d="M354.269,345.79C350.742,345.79 347.882,342.93 347.882,339.403L347.882,332.069C347.882,328.542 350.742,325.682 354.269,325.682C357.796,325.682 360.656,328.542 360.656,332.069L360.656,339.403C360.656,342.93 357.796,345.79 354.269,345.79Z" style="fill:rgb(6,103,56);fill-rule:nonzero;"/>
    </g>
    <g transform="matrix(1.91122,0,0,1.91122,-520.772,-397.689)">
        <path d="M488.474,346.569C484.947,346.569 482.087,343.709 482.087,340.182L482.087,260.991C482.087,260.816 482.094,260.642 482.108,260.469C481.902,257.465 479.392,255.084 476.336,255.084C473.146,255.084 470.55,257.68 470.55,260.87L470.55,340.182C470.55,343.709 467.691,346.569 464.163,346.569C460.636,346.569 457.777,343.709 457.777,340.182L457.777,260.87C457.777,250.636 466.102,242.31 476.336,242.31C486.571,242.31 494.896,250.636 494.896,260.87C494.896,261.094 494.884,261.317 494.861,261.539L494.861,340.182C494.861,343.709 492.001,346.569 488.474,346.569Z" style="fill:rgb(6,103,56);fill-rule:nonzero;"/>
    </g>
    <g transform="matrix(1.91122,0,0,1.91122,-520.772,-397.689)">
        <path d="M473.143,309.084L464.901,309.084C461.373,309.084 458.514,306.225 458.514,302.697C458.514,299.17 461.373,296.31 464.901,296.31L473.143,296.31C476.67,296.31 479.53,299.17 479.53,302.697C479.53,306.225 476.67,309.084 473.143,309.084Z" style="fill:rgb(6,103,56);fill-rule:nonzero;"/>
    </g>
    <g transform="matrix(1.91122,0,0,1.91122,-520.772,-397.689)">
        <path d="M551.277,243.343C552.499,243.355 553.622,243.371 554.609,243.391C557.868,243.444 560.123,242.26 561.263,239.839C562.442,237.336 561.996,234.419 560.905,233.151C560.63,232.832 559.796,231.862 556.974,232.702C556.31,232.899 553.582,234.259 551.277,243.343ZM534.763,301.59C527.176,302.468 520.153,306.512 516.075,311.328C512.783,315.215 509.715,321.4 513.796,328.795C515.87,332.556 519.393,334.316 522.987,333.391C528.419,331.992 534.763,324.157 534.763,306.68L534.762,305.072C534.762,303.911 534.762,302.747 534.763,301.59ZM521.133,346.404C513.651,346.405 506.595,342.187 502.611,334.966C496.857,324.537 498.246,312.614 506.327,303.072C513.408,294.71 524.075,289.621 534.807,288.8C534.907,277.061 535.227,265.888 536.257,256.082C527.749,256.101 520,256.162 519.864,256.163L519.812,256.163C516.307,256.163 513.453,253.337 513.426,249.827C513.398,246.3 516.235,243.417 519.762,243.39C520.367,243.385 529.132,243.316 538.217,243.303C540.814,231.252 545.362,222.833 553.326,220.459C560.164,218.422 566.455,220.013 570.591,224.823C575.176,230.156 576.072,238.378 572.82,245.282C569.535,252.258 562.657,256.333 554.357,256.162C552.892,256.133 551.097,256.113 549.106,256.1C547.995,266.093 547.669,277.861 547.576,289.951C548.376,290.169 549.169,290.415 549.952,290.691C559.634,294.103 576.005,304.938 576.868,339.176C576.956,342.703 574.17,345.633 570.644,345.722C567.117,345.804 564.186,343.024 564.098,339.497C563.629,320.881 557.77,308.199 547.537,303.482L547.537,306.68C547.537,331.438 536.501,343.101 526.173,345.762C524.492,346.195 522.802,346.404 521.133,346.404Z" style="fill:rgb(6,103,56);fill-rule:nonzero;"/>
    </g>
    <g transform="matrix(1.91122,0,0,1.91122,-520.772,-397.689)">
        <path d="M504.629,263.197C501.102,263.197 498.243,260.337 498.243,256.81L498.243,249.476C498.243,245.949 501.102,243.089 504.629,243.089C508.157,243.089 511.016,245.949 511.016,249.476L511.016,256.81C511.016,260.337 508.157,263.197 504.629,263.197Z" style="fill:rgb(6,103,56);fill-rule:nonzero;"/>
    </g>
</svg>
